<svg width="443" height="365" viewBox="0 0 443 365" fill="none" xmlns="http://www.w3.org/2000/svg">
<path opacity="0.1" d="M53.289 48.7355C57.3262 24.6466 78.1764 7.00012 102.601 7.00012H392.284C419.898 7.00012 442.284 29.3859 442.284 57.0001V315C442.284 342.614 419.898 365 392.284 365H59.361C28.4457 365 4.93871 337.226 10.0488 306.736L53.289 48.7355Z" fill="#2D9CDB"/>
<ellipse cx="382.674" cy="313.031" rx="30.9248" ry="18.2737" transform="rotate(20.7184 382.674 313.031)" stroke="white" stroke-width="1.5"/>
<path d="M108.725 254.711C48.191 266.917 33.5667 202.793 74.9572 128.69C168.953 -11.8782 317.405 29.8639 340.045 57.6597C362.684 85.4555 344.491 118.797 257.252 133.393C170.013 147.99 184.393 239.452 108.725 254.711Z" stroke="white" stroke-width="1.5"/>
</svg>
