<svg width="443" height="388" viewBox="0 0 443 388" fill="none" xmlns="http://www.w3.org/2000/svg">
<path opacity="0.1" d="M53.2894 71.7354C57.3267 47.6466 78.1768 30.0001 102.602 30.0001H392.284C419.898 30.0001 442.284 52.3858 442.284 80.0001V338C442.284 365.614 419.898 388 392.284 388H59.3614C28.4461 388 4.93915 360.225 10.0492 329.735L53.2894 71.7354Z" fill="#68C9BA"/>
<path d="M410.013 124.029C435.737 153.207 405.363 181.381 351.902 182.141C245.615 175.137 221.63 81.0073 229.663 59.9027C237.696 38.7981 261.614 38.222 297.053 81.215C332.492 124.208 377.857 87.5572 410.013 124.029Z" stroke="white" stroke-width="1.5"/>
<ellipse cx="305.633" cy="89.1502" rx="16.8481" ry="9.95569" transform="rotate(20.7184 305.633 89.1502)" stroke="white" stroke-width="1.5"/>
</svg>
